<svg width="32" height="33" viewBox="0 0 32 33" fill="none" xmlns="http://www.w3.org/2000/svg">
<path d="M11.75 3.96582C8.95375 3.96582 7 6.43332 7 9.96582C7 13.4983 8.95375 15.9658 11.75 15.9658C14.5463 15.9658 16.5 13.4983 16.5 9.96582C16.5 6.43332 14.5463 3.96582 11.75 3.96582ZM11.75 13.9658C9.57875 13.9658 9 11.4521 9 9.96582C9 8.47957 9.57875 5.96582 11.75 5.96582C13.9213 5.96582 14.5 8.47957 14.5 9.96582C14.5 11.4521 13.9213 13.9658 11.75 13.9658ZM20.75 17.9658C17.9537 17.9658 16 20.4333 16 23.9658C16 27.4983 17.9537 29.9658 20.75 29.9658C23.5462 29.9658 25.5 27.4983 25.5 23.9658C25.5 20.4333 23.5462 17.9658 20.75 17.9658ZM20.75 27.9658C18.5787 27.9658 18 25.4521 18 23.9658C18 22.4796 18.5787 19.9658 20.75 19.9658C22.9213 19.9658 23.5 22.4796 23.5 23.9658C23.5 25.4521 22.9213 27.9658 20.75 27.9658ZM18.125 7.11832C18.0612 7.0035 18.0207 6.87724 18.0057 6.74674C17.9907 6.61625 18.0015 6.48408 18.0376 6.35779C18.0737 6.23149 18.1344 6.11355 18.2161 6.01069C18.2978 5.90783 18.3989 5.82208 18.5138 5.75832L21.5138 4.09207C21.666 4.00737 21.8377 3.9639 22.0118 3.96596C22.186 3.96802 22.3566 4.01555 22.5068 4.10383C22.657 4.19211 22.7815 4.31808 22.868 4.46927C22.9545 4.62046 23 4.79163 23 4.96582V14.9658C23 15.231 22.8946 15.4854 22.7071 15.6729C22.5196 15.8605 22.2652 15.9658 22 15.9658C21.7348 15.9658 21.4804 15.8605 21.2929 15.6729C21.1054 15.4854 21 15.231 21 14.9658V6.66582L19.485 7.50707C19.3702 7.57087 19.2439 7.61142 19.1134 7.62641C18.9829 7.6414 18.8508 7.63053 18.7245 7.59443C18.5982 7.55833 18.4802 7.4977 18.3774 7.41601C18.2745 7.33432 18.1888 7.23316 18.125 7.11832ZM13 18.9658V28.9658C13 29.231 12.8946 29.4854 12.7071 29.6729C12.5196 29.8605 12.2652 29.9658 12 29.9658C11.7348 29.9658 11.4804 29.8605 11.2929 29.6729C11.1054 29.4854 11 29.231 11 28.9658V20.6658L9.485 21.5071C9.25294 21.6357 8.97928 21.6669 8.72423 21.5937C8.46918 21.5206 8.25363 21.3491 8.125 21.1171C7.99637 20.885 7.9652 20.6113 8.03833 20.3563C8.11147 20.1012 8.28294 19.8857 8.515 19.7571L11.515 18.0908C11.6673 18.0064 11.8389 17.9631 12.013 17.9654C12.1872 17.9677 12.3576 18.0154 12.5077 18.1038C12.6577 18.1922 12.782 18.3182 12.8684 18.4694C12.9547 18.6206 13.0001 18.7917 13 18.9658Z" fill="white"/>
</svg>
