<svg width="32" height="33" viewBox="0 0 32 33" fill="none" xmlns="http://www.w3.org/2000/svg">
<path d="M18 12.4658C18 12.1691 18.088 11.8791 18.2528 11.6325C18.4176 11.3858 18.6519 11.1935 18.926 11.08C19.2001 10.9665 19.5017 10.9368 19.7926 10.9946C20.0836 11.0525 20.3509 11.1954 20.5607 11.4052C20.7704 11.6149 20.9133 11.8822 20.9712 12.1732C21.0291 12.4642 20.9993 12.7658 20.8858 13.0398C20.7723 13.3139 20.58 13.5482 20.3334 13.713C20.0867 13.8778 19.7967 13.9658 19.5 13.9658C19.1022 13.9658 18.7206 13.8078 18.4393 13.5265C18.158 13.2452 18 12.8636 18 12.4658ZM12.5 10.9658C12.2033 10.9658 11.9133 11.0538 11.6666 11.2186C11.42 11.3834 11.2277 11.6177 11.1142 11.8918C11.0006 12.1659 10.9709 12.4675 11.0288 12.7585C11.0867 13.0494 11.2296 13.3167 11.4393 13.5265C11.6491 13.7363 11.9164 13.8791 12.2074 13.937C12.4983 13.9949 12.7999 13.9652 13.074 13.8516C13.3481 13.7381 13.5824 13.5458 13.7472 13.2992C13.912 13.0525 14 12.7625 14 12.4658C14 12.068 13.842 11.6865 13.5607 11.4052C13.2794 11.1239 12.8978 10.9658 12.5 10.9658ZM27 18.9658C27.0028 19.9365 26.8766 20.9033 26.625 21.8408L29.405 23.0558C29.6121 23.1501 29.7808 23.3123 29.8833 23.5155C29.9858 23.7186 30.0159 23.9507 29.9687 24.1733C29.9215 24.3959 29.7998 24.5958 29.6237 24.7398C29.4476 24.8839 29.2276 24.9637 29 24.9658C28.8623 24.9661 28.726 24.9376 28.6 24.8821L25.9225 23.7158C25.0267 25.5878 23.6197 27.1682 21.8639 28.2744C20.1082 29.3807 18.0752 29.9678 16 29.9678C13.9248 29.9678 11.8918 29.3807 10.1361 28.2744C8.38028 27.1682 6.97326 25.5878 6.0775 23.7158L3.4 24.8821C3.27398 24.9376 3.13772 24.9661 3 24.9658C2.77037 24.9657 2.54778 24.8865 2.36963 24.7416C2.19148 24.5967 2.06863 24.3949 2.02171 24.1702C1.97478 23.9454 2.00665 23.7113 2.11196 23.5072C2.21727 23.3032 2.3896 23.1416 2.6 23.0496L5.375 21.8408C5.12335 20.9033 4.99725 19.9365 5 18.9658V17.9658H2C1.73478 17.9658 1.48043 17.8605 1.29289 17.6729C1.10536 17.4854 1 17.231 1 16.9658C1 16.7006 1.10536 16.4462 1.29289 16.2587C1.48043 16.0712 1.73478 15.9658 2 15.9658H5V14.9658C4.99725 13.9951 5.12335 13.0283 5.375 12.0908L2.6 10.8821C2.4768 10.8315 2.36495 10.7568 2.271 10.6624C2.17706 10.568 2.10291 10.4558 2.05292 10.3324C2.00293 10.2089 1.9781 10.0767 1.97989 9.94358C1.98167 9.81042 2.01004 9.67895 2.06332 9.5569C2.11661 9.43484 2.19374 9.32467 2.29018 9.23282C2.38662 9.14098 2.50044 9.06933 2.62495 9.02207C2.74946 8.97481 2.88215 8.9529 3.01525 8.95762C3.14834 8.96235 3.27915 8.9936 3.4 9.04957L6.0775 10.2158C6.97326 8.34385 8.38028 6.76347 10.1361 5.65719C11.8918 4.55091 13.9248 3.96387 16 3.96387C18.0752 3.96387 20.1082 4.55091 21.8639 5.65719C23.6197 6.76347 25.0267 8.34385 25.9225 10.2158L28.6 9.04582C28.8418 8.94654 29.1129 8.94589 29.3552 9.04401C29.5975 9.14213 29.7917 9.33122 29.8963 9.57079C30.0009 9.81035 30.0075 10.0813 29.9147 10.3257C29.822 10.5701 29.6372 10.7685 29.4 10.8783L26.625 12.0971C26.8766 13.0346 27.0028 14.0014 27 14.9721V15.9721H30C30.2652 15.9721 30.5196 16.0774 30.7071 16.265C30.8946 16.4525 31 16.7068 31 16.9721C31 17.2373 30.8946 17.4916 30.7071 17.6792C30.5196 17.8667 30.2652 17.9721 30 17.9721H27V18.9658ZM7 15.9658H25V14.9658C25 12.5789 24.0518 10.2897 22.364 8.60185C20.6761 6.91403 18.3869 5.96582 16 5.96582C13.6131 5.96582 11.3239 6.91403 9.63604 8.60185C7.94821 10.2897 7 12.5789 7 14.9658V15.9658ZM15 27.9083V17.9658H7V18.9658C7.00263 21.1787 7.81952 23.3132 9.29493 24.9624C10.7703 26.6117 12.8011 27.6603 15 27.9083ZM25 18.9658V17.9658H17V27.9083C19.1989 27.6603 21.2297 26.6117 22.7051 24.9624C24.1805 23.3132 24.9974 21.1787 25 18.9658Z" fill="white"/>
</svg>
