<svg width="32" height="33" viewBox="0 0 32 33" fill="none" xmlns="http://www.w3.org/2000/svg">
<path d="M8.63994 12.7346L3.56244 16.9659L8.63994 21.1971C8.74375 21.2802 8.82994 21.3832 8.89347 21.5C8.95701 21.6168 8.9966 21.7451 9.00995 21.8774C9.02329 22.0097 9.01012 22.1433 8.9712 22.2705C8.93228 22.3976 8.86839 22.5157 8.78327 22.6179C8.69815 22.7201 8.59352 22.8042 8.47548 22.8654C8.35745 22.9267 8.22839 22.9637 8.09585 22.9745C7.96332 22.9852 7.82997 22.9695 7.70361 22.9281C7.57725 22.8866 7.46041 22.8205 7.35994 22.7334L1.35994 17.7334C1.24736 17.6395 1.15678 17.5221 1.09462 17.3893C1.03246 17.2566 1.00024 17.1118 1.00024 16.9652C1.00024 16.8187 1.03246 16.6739 1.09462 16.5411C1.15678 16.4084 1.24736 16.291 1.35994 16.1971L7.35994 11.1971C7.56383 11.0274 7.82679 10.9456 8.09098 10.9697C8.35518 10.9939 8.59896 11.122 8.76869 11.3259C8.93843 11.5297 9.02023 11.7927 8.99608 12.0569C8.97194 12.3211 8.84383 12.5649 8.63994 12.7346ZM30.6399 16.1971L24.6399 11.1971C24.539 11.1131 24.4225 11.0497 24.297 11.0107C24.1716 10.9717 24.0397 10.9578 23.9089 10.9697C23.7781 10.9817 23.6509 11.0193 23.5346 11.0804C23.4183 11.1415 23.3152 11.2249 23.2312 11.3259C23.0615 11.5297 22.9797 11.7927 23.0038 12.0569C23.028 12.3211 23.1561 12.5649 23.3599 12.7346L28.4374 16.9659L23.3599 21.1971C23.2561 21.2802 23.1699 21.3832 23.1064 21.5C23.0429 21.6168 23.0033 21.7451 22.9899 21.8774C22.9766 22.0097 22.9898 22.1433 23.0287 22.2705C23.0676 22.3976 23.1315 22.5157 23.2166 22.6179C23.3017 22.7201 23.4064 22.8042 23.5244 22.8654C23.6424 22.9267 23.7715 22.9637 23.904 22.9745C24.0366 22.9852 24.1699 22.9695 24.2963 22.9281C24.4226 22.8866 24.5395 22.8205 24.6399 22.7334L30.6399 17.7334C30.7525 17.6395 30.8431 17.5221 30.9053 17.3893C30.9674 17.2566 30.9996 17.1118 30.9996 16.9652C30.9996 16.8187 30.9674 16.6739 30.9053 16.5411C30.8431 16.4084 30.7525 16.291 30.6399 16.1971ZM20.3412 5.02585C20.2178 4.98104 20.0867 4.96097 19.9555 4.96681C19.8243 4.97264 19.6955 5.00426 19.5766 5.05986C19.4576 5.11546 19.3507 5.19395 19.2621 5.29085C19.1734 5.38775 19.1048 5.50116 19.0599 5.6246L11.0599 27.6246C11.0149 27.7481 10.9947 27.8793 11.0005 28.0106C11.0062 28.142 11.0378 28.2709 11.0934 28.39C11.149 28.5091 11.2276 28.6161 11.3246 28.7048C11.4216 28.7936 11.5351 28.8623 11.6587 28.9071C11.7683 28.946 11.8837 28.9659 11.9999 28.9659C12.2053 28.9659 12.4057 28.9026 12.5739 28.7848C12.742 28.6669 12.8699 28.5001 12.9399 28.3071L20.9399 6.3071C20.9848 6.18366 21.0048 6.0526 20.999 5.9214C20.9932 5.79021 20.9615 5.66144 20.9059 5.54247C20.8503 5.42349 20.7718 5.31663 20.6749 5.22799C20.578 5.13935 20.4646 5.07066 20.3412 5.02585Z" fill="white"/>
</svg>
