<svg width="57" height="56" viewBox="0 0 57 56" fill="none" xmlns="http://www.w3.org/2000/svg">
<g opacity="0.3">
<path d="M42.5162 12.4443L40.017 40.4411L28.7833 43.5554L17.5805 40.4455L15.084 12.4443H42.5162Z" fill="#656568"/>
<path d="M20.8071 25.1191L21.1149 28.5533H28.8001V25.1191H20.8071Z" fill="#F9F9F9"/>
<path d="M28.8001 18.168H28.7883H20.1887L20.5009 21.6022H28.8001V18.168Z" fill="#F9F9F9"/>
<path d="M28.8001 37.611V34.038L28.7851 34.042L24.9604 33.0092L24.7159 30.2703H22.8573H21.2684L21.7496 35.6625L28.7843 37.6154L28.8001 37.611Z" fill="#F9F9F9"/>
<path d="M33.0171 28.5531L32.6184 33.007L28.7882 34.0408V37.6137L35.8286 35.6625L35.8802 35.0823L36.6872 26.0411L36.771 25.1189L37.391 18.168H28.7882V21.6022H33.6274L33.3149 25.1189H28.7882V28.5531H33.0171Z" fill="#F9F9F9"/>
</g>
</svg>
