<svg width="57" height="56" viewBox="0 0 57 56" fill="none" xmlns="http://www.w3.org/2000/svg">
<g opacity="0.3">
<path d="M42.5161 12.4443L40.0169 40.4411L28.7832 43.5554L17.5804 40.4455L15.0839 12.4443H42.5161Z" fill="white"/>
<path d="M20.8071 25.1191L21.1149 28.5533H28.8V25.1191H20.8071Z" fill="#232428"/>
<path d="M28.8 18.168H28.7881H20.1886L20.5008 21.6022H28.8V18.168Z" fill="#232428"/>
<path d="M28.8 37.611V34.038L28.7849 34.042L24.9602 33.0092L24.7157 30.2703H22.8572H21.2683L21.7494 35.6625L28.7842 37.6154L28.8 37.611Z" fill="#232428"/>
<path d="M33.017 28.5531L32.6184 33.007L28.7881 34.0408V37.6137L35.8285 35.6625L35.8801 35.0823L36.6871 26.0411L36.7709 25.1189L37.3909 18.168H28.7881V21.6022H33.6273L33.3148 25.1189H28.7881V28.5531H33.017Z" fill="#232428"/>
</g>
</svg>
