<svg width="201" height="51" viewBox="0 0 201 51" fill="none" xmlns="http://www.w3.org/2000/svg">
<path d="M36.6827 12.8408L18.9098 12.8408L22.6125 17.0955H15.3849L23.5308 25.485L15.3849 33.8745H22.6125L18.9098 38.1591H36.6827C43.5845 38.1591 49.183 32.4662 49.183 25.5149C49.183 18.5637 43.5845 12.8408 36.6827 12.8408ZM20.4798 31.7471L26.5226 25.5149L20.4798 19.2828H24.5083L29.929 25.5149L24.5083 31.7471H20.4798ZM27.352 19.2528L36.4457 19.2528C39.8522 19.2528 42.607 22.0393 42.607 25.485C42.607 28.9307 39.8522 31.7172 36.4457 31.7172H27.352L32.7727 25.485L27.352 19.2528ZM36.6827 36.0018H23.6493L25.4858 33.9044H36.4457C41.0371 33.9044 44.7398 30.1292 44.7398 25.5149C44.7398 20.8708 41.0075 17.1255 36.4457 17.1255L25.4858 17.1255L23.6493 15.0281L36.6827 15.0281C42.3997 15.0281 47.0502 19.7322 47.0502 25.5149C47.0502 31.2977 42.3997 36.0018 36.6827 36.0018Z" fill="white"/>
<path fill-rule="evenodd" clip-rule="evenodd" d="M90.2416 30.9775C89.2489 31.3001 88.2563 31.5482 87.2636 31.6971C86.271 31.846 85.2535 31.9205 84.2112 31.9205C82.896 31.9205 81.7048 31.7716 80.6873 31.4986C79.645 31.2256 78.7765 30.8038 78.0816 30.2578C77.3868 29.7118 76.8408 29.0666 76.4686 28.2725C76.0963 27.4784 75.9226 26.6098 75.9226 25.6172C75.9226 24.699 76.1211 23.8552 76.4934 23.0611C76.8656 22.267 77.3868 21.5969 78.0816 21.0014C78.7765 20.4306 79.5954 19.9591 80.5632 19.6365C81.5311 19.3139 82.623 19.1401 83.8142 19.1401C84.9061 19.1401 85.9235 19.289 86.8417 19.5868C87.7599 19.8846 88.5541 20.3313 89.1993 20.9021C89.8445 21.4729 90.3656 22.1925 90.7379 23.0611C91.1101 23.9049 91.2839 24.8975 91.2839 26.0142V26.8332H79.2728C79.3721 27.2054 79.5458 27.5777 79.7939 27.8754C80.0421 28.1981 80.3647 28.471 80.7866 28.6944C81.2085 28.9177 81.7296 29.0914 82.3252 29.2155C82.9456 29.3396 83.6653 29.3892 84.509 29.3892C85.1046 29.3892 85.7002 29.3644 86.271 29.29C86.8417 29.2155 87.3877 29.1163 87.884 28.9922C88.3804 28.8681 88.827 28.744 89.2489 28.5951C89.646 28.4462 89.9686 28.2973 90.2168 28.1484V30.9775H90.2416ZM87.7103 23.483C87.8551 23.7966 87.9529 24.1103 87.9811 24.4012H79.2728C79.3472 24.1282 79.4713 23.8552 79.6699 23.5326C79.8684 23.2348 80.1414 22.937 80.5136 22.664C80.861 22.3911 81.3077 22.1677 81.8537 21.994C82.3996 21.8203 83.02 21.721 83.7645 21.721C84.5587 21.721 85.2039 21.7955 85.725 21.9692C86.2462 22.1429 86.668 22.3662 86.9906 22.6144C87.3133 22.8626 87.5614 23.1604 87.7103 23.483ZM73.7389 25.4931C73.7389 26.2624 73.6645 26.9572 73.4908 27.5528C73.3171 28.1484 73.0689 28.6695 72.7711 29.1162C72.4733 29.5629 72.1011 29.9352 71.6544 30.2578C71.2325 30.5804 70.7362 30.8285 70.215 31.0023C69.6939 31.2008 69.1231 31.3249 68.5027 31.4241C67.8823 31.4986 67.2619 31.5482 66.5919 31.5482H58.874V19.4379H66.5422C67.2123 19.4379 67.8575 19.4875 68.4531 19.562C69.0735 19.6364 69.6443 19.7853 70.1654 19.9839C70.6865 20.1824 71.1829 20.4306 71.6296 20.7283C72.0762 21.0261 72.4485 21.4232 72.7463 21.8699C73.0441 22.3166 73.2922 22.8377 73.466 23.4333C73.6397 24.0537 73.7389 24.7238 73.7389 25.4931ZM70.4384 25.4931C70.4384 24.9223 70.3639 24.4011 70.215 23.9793C70.0661 23.5574 69.818 23.1852 69.4954 22.9122C69.1728 22.6392 68.7261 22.4158 68.2049 22.2918C67.659 22.1429 67.0137 22.0932 66.2444 22.0932H62.1498V28.9425H66.2196C66.9889 28.9425 67.6341 28.8681 68.1801 28.744C68.7261 28.5951 69.1479 28.3966 69.4705 28.0988C69.7932 27.8258 70.0413 27.4535 70.1902 27.0317C70.3639 26.585 70.4384 26.0886 70.4384 25.4931ZM98.4309 31.573H102.253L108.432 19.4379H104.784L100.367 28.5703L95.9492 19.4379H92.3013L98.4309 31.573ZM110.417 31.573V22.7136L113.693 26.5105V31.573H110.417ZM129.054 24.7734V31.5731V31.6227H132.28V23.3589C132.28 22.7137 132.181 22.1429 131.933 21.6218C131.709 21.1006 131.362 20.6788 130.915 20.3065C130.469 19.9343 129.923 19.6613 129.277 19.4628C128.632 19.2642 127.912 19.165 127.094 19.165C126.448 19.165 125.828 19.2146 125.232 19.3387C124.662 19.438 124.091 19.5868 123.57 19.7854C123.048 19.9591 122.552 20.1824 122.081 20.4058C121.761 20.557 121.465 20.7196 121.176 20.8782C121.038 20.9538 120.902 21.0285 120.765 21.1006V19.438H117.49V31.5234H120.765V23.9049C121.113 23.6319 121.485 23.3589 121.932 23.0859C122.378 22.813 122.85 22.5896 123.321 22.3911C123.818 22.1926 124.289 22.0437 124.786 21.9196C125.282 21.7955 125.753 21.7459 126.2 21.7459C126.796 21.7459 127.267 21.8203 127.639 21.9692C128.012 22.1181 128.31 22.3166 128.508 22.5896C128.707 22.8378 128.855 23.1604 128.93 23.5326C129.004 23.9049 129.054 24.3267 129.054 24.7734ZM150.917 25.4931C150.917 26.2624 150.843 26.9572 150.669 27.5528C150.495 28.1484 150.247 28.6695 149.949 29.1162C149.651 29.5629 149.279 29.9352 148.833 30.2578C148.411 30.5804 147.914 30.8285 147.393 31.0023C146.872 31.2008 146.301 31.3249 145.681 31.4241C145.06 31.4986 144.44 31.5482 143.77 31.5482H136.077V19.4379H143.745C144.415 19.4379 145.06 19.4875 145.656 19.562C146.276 19.6364 146.847 19.7853 147.368 19.9839C147.889 20.1824 148.386 20.4306 148.833 20.7283C149.279 21.0261 149.651 21.4232 149.949 21.8699C150.247 22.3166 150.495 22.8377 150.669 23.4333C150.818 24.0537 150.917 24.7238 150.917 25.4931ZM147.617 25.4931C147.617 24.9223 147.542 24.4011 147.393 23.9793C147.244 23.5574 146.996 23.1852 146.674 22.9122C146.351 22.6392 145.904 22.4158 145.383 22.2918C144.837 22.1429 144.192 22.0932 143.423 22.0932H139.353V28.9425H143.423C144.192 28.9425 144.837 28.8681 145.383 28.744C145.929 28.5951 146.351 28.3966 146.674 28.0988C146.996 27.8258 147.244 27.4535 147.393 27.0317C147.542 26.585 147.617 26.0886 147.617 25.4931ZM164.442 31.6971C165.434 31.5482 166.427 31.3001 167.42 30.9775H167.445V28.1484C167.196 28.2973 166.874 28.4462 166.477 28.5951C166.055 28.744 165.608 28.8681 165.112 28.9922C164.616 29.1163 164.07 29.2155 163.499 29.29C162.928 29.3644 162.332 29.3892 161.737 29.3892C160.893 29.3892 160.173 29.3396 159.553 29.2155C158.957 29.0914 158.436 28.9177 158.014 28.6944C157.593 28.471 157.27 28.1981 157.022 27.8754C156.774 27.5777 156.6 27.2054 156.501 26.8332H168.462V26.0142C168.462 24.8975 168.288 23.9049 167.916 23.0611C167.544 22.1925 167.023 21.4729 166.378 20.9021C165.732 20.3313 164.938 19.8846 164.02 19.5868C163.102 19.289 162.084 19.1401 160.992 19.1401C159.801 19.1401 158.709 19.3139 157.741 19.6365C156.774 19.9591 155.955 20.4306 155.26 21.0014C154.565 21.5969 154.044 22.267 153.672 23.0611C153.299 23.8552 153.101 24.699 153.101 25.6172C153.101 26.6098 153.275 27.4784 153.647 28.2725C154.019 29.0666 154.565 29.7118 155.26 30.2578C155.955 30.8038 156.848 31.2256 157.866 31.4986C158.883 31.7716 160.074 31.9205 161.389 31.9205C162.432 31.9205 163.449 31.846 164.442 31.6971ZM165.159 24.4012C165.131 24.1103 165.033 23.7966 164.889 23.483C164.74 23.1604 164.491 22.8626 164.169 22.6144C163.846 22.3662 163.424 22.1429 162.903 21.9692C162.382 21.7955 161.737 21.721 160.943 21.721C160.198 21.721 159.578 21.8203 159.032 21.994C158.486 22.1677 158.039 22.3911 157.692 22.664C157.32 22.937 157.047 23.2348 156.848 23.5326C156.65 23.8552 156.525 24.1282 156.451 24.4012H165.159ZM179.431 31.573H175.61L169.48 19.4379H173.128L177.57 28.5703L181.963 19.4379H185.611L179.431 31.573ZM110.417 19.4379H113.668V22.6888H110.417V19.4379Z" fill="white"/>
</svg>
