<svg width="33" height="33" viewBox="0 0 33 33" fill="none" xmlns="http://www.w3.org/2000/svg">
<path d="M26.7054 9.92584C27.011 8.93983 27.1091 7.90119 26.9933 6.8754C26.8776 5.84962 26.5506 4.85894 26.0329 3.96584C25.9451 3.81378 25.8188 3.68753 25.6668 3.59976C25.5147 3.51198 25.3422 3.4658 25.1666 3.46584C24.0019 3.4634 22.8527 3.73342 21.8109 4.25432C20.7691 4.77522 19.8635 5.53256 19.1666 6.46584H16.1666C15.4697 5.53256 14.5642 4.77522 13.5224 4.25432C12.4806 3.73342 11.3314 3.4634 10.1666 3.46584C9.99105 3.4658 9.81856 3.51198 9.6665 3.59976C9.51444 3.68753 9.38816 3.81378 9.30038 3.96584C8.78269 4.85894 8.45566 5.84962 8.33991 6.8754C8.22417 7.90119 8.32222 8.93983 8.62788 9.92584C8.01004 11.0042 7.67908 12.2231 7.66663 13.4658V14.4658C7.66873 16.1578 8.28296 17.7919 9.3959 19.0664C10.5088 20.3409 12.0453 21.1696 13.7216 21.3996C13.0374 22.2752 12.666 23.3546 12.6666 24.4658V25.4658H9.66663C8.87098 25.4658 8.10791 25.1498 7.54531 24.5872C6.9827 24.0245 6.66663 23.2615 6.66663 22.4658C6.66663 21.8092 6.5373 21.159 6.28602 20.5524C6.03475 19.9458 5.66645 19.3946 5.20216 18.9303C4.73787 18.466 4.18667 18.0977 3.58004 17.8464C2.97342 17.5952 2.32324 17.4658 1.66663 17.4658C1.40141 17.4658 1.14706 17.5712 0.959519 17.7587C0.771983 17.9463 0.666626 18.2006 0.666626 18.4658C0.666626 18.7311 0.771983 18.9854 0.959519 19.1729C1.14706 19.3605 1.40141 19.4658 1.66663 19.4658C2.46228 19.4658 3.22534 19.7819 3.78795 20.3445C4.35056 20.9071 4.66663 21.6702 4.66663 22.4658C4.66663 23.7919 5.19341 25.0637 6.13109 26.0014C7.06877 26.9391 8.34054 27.4658 9.66663 27.4658H12.6666V29.4658C12.6666 29.7311 12.772 29.9854 12.9595 30.1729C13.1471 30.3605 13.4014 30.4658 13.6666 30.4658C13.9318 30.4658 14.1862 30.3605 14.3737 30.1729C14.5613 29.9854 14.6666 29.7311 14.6666 29.4658V24.4658C14.6666 23.6702 14.9827 22.9071 15.5453 22.3445C16.1079 21.7819 16.871 21.4658 17.6666 21.4658C18.4623 21.4658 19.2253 21.7819 19.7879 22.3445C20.3506 22.9071 20.6666 23.6702 20.6666 24.4658V29.4658C20.6666 29.7311 20.772 29.9854 20.9595 30.1729C21.1471 30.3605 21.4014 30.4658 21.6666 30.4658C21.9318 30.4658 22.1862 30.3605 22.3737 30.1729C22.5613 29.9854 22.6666 29.7311 22.6666 29.4658V24.4658C22.6673 23.3546 22.2959 22.2752 21.6116 21.3996C23.2879 21.1696 24.8244 20.3409 25.9373 19.0664C27.0503 17.7919 27.6645 16.1578 27.6666 14.4658V13.4658C27.6542 12.2231 27.3232 11.0042 26.7054 9.92584ZM25.6666 14.4658C25.6666 15.7919 25.1398 17.0637 24.2022 18.0014C23.2645 18.9391 21.9927 19.4658 20.6666 19.4658H14.6666C13.3405 19.4658 12.0688 18.9391 11.1311 18.0014C10.1934 17.0637 9.66663 15.7919 9.66663 14.4658V13.4658C9.67889 12.4659 9.97827 11.4905 10.5291 10.6558C10.6318 10.5205 10.6983 10.3612 10.7224 10.193C10.7464 10.0248 10.7273 9.8533 10.6666 9.69459C10.4062 9.02283 10.2808 8.30628 10.2977 7.586C10.3147 6.86571 10.4736 6.15585 10.7654 5.49709C11.5838 5.58513 12.3719 5.85623 13.0712 6.2903C13.7706 6.72437 14.3633 7.31028 14.8054 8.00459C14.8955 8.14547 15.0194 8.26151 15.166 8.34209C15.3125 8.42267 15.4769 8.46521 15.6441 8.46584H19.6879C19.8557 8.46584 20.0209 8.42359 20.1681 8.34299C20.3154 8.26238 20.4399 8.146 20.5304 8.00459C20.9724 7.31022 21.5651 6.72426 22.2645 6.29018C22.9638 5.85611 23.752 5.58504 24.5704 5.49709C24.8617 6.15601 25.0202 6.86596 25.0368 7.58625C25.0533 8.30653 24.9275 9.023 24.6666 9.69459C24.6062 9.85178 24.586 10.0216 24.6078 10.1886C24.6296 10.3556 24.6928 10.5145 24.7916 10.6508C25.3479 11.4855 25.6518 12.4629 25.6666 13.4658V14.4658Z" fill="white"/>
</svg>
