<svg width="32" height="33" viewBox="0 0 32 33" fill="none" xmlns="http://www.w3.org/2000/svg">
<path d="M30.6 19.7657C30.495 19.8445 30.3754 19.9018 30.2482 19.9344C30.121 19.967 29.9886 19.9742 29.8586 19.9557C29.7286 19.9371 29.6035 19.8931 29.4905 19.8262C29.3775 19.7593 29.2788 19.6708 29.2 19.5657C28.5973 18.7555 27.8127 18.0982 26.9096 17.6466C26.0064 17.195 25.0098 16.9618 24 16.9657C23.8034 16.9657 23.6111 16.9077 23.4472 16.799C23.2834 16.6903 23.1552 16.5356 23.0788 16.3545C23.0269 16.2314 23.0001 16.0993 23.0001 15.9657C23.0001 15.8322 23.0269 15.7 23.0788 15.577C23.1552 15.3958 23.2834 15.2412 23.4472 15.1325C23.6111 15.0237 23.8034 14.9657 24 14.9657C24.5611 14.9657 25.1109 14.8083 25.5871 14.5114C26.0632 14.2145 26.4465 13.7901 26.6935 13.2863C26.9405 12.7825 27.0412 12.2195 26.9843 11.6613C26.9273 11.1031 26.715 10.5721 26.3714 10.1285C26.0278 9.68493 25.5666 9.34662 25.0404 9.15199C24.5141 8.95736 23.9439 8.91421 23.3943 9.02745C22.8448 9.14068 22.338 9.40576 21.9315 9.79258C21.5251 10.1794 21.2353 10.6724 21.095 11.2157C21.0622 11.3429 21.0046 11.4624 20.9256 11.5674C20.8466 11.6724 20.7477 11.7608 20.6345 11.8275C20.5213 11.8942 20.3961 11.938 20.266 11.9564C20.1359 11.9747 20.0035 11.9673 19.8763 11.9345C19.749 11.9016 19.6295 11.8441 19.5246 11.7651C19.4196 11.686 19.3312 11.5871 19.2645 11.474C19.1977 11.3608 19.1539 11.2356 19.1356 11.1055C19.1172 10.9754 19.1247 10.8429 19.1575 10.7157C19.3522 9.96236 19.72 9.26484 20.2318 8.67866C20.7435 8.09247 21.3849 7.63381 22.1051 7.33916C22.8252 7.0445 23.6042 6.922 24.3801 6.98138C25.1559 7.04077 25.9072 7.28041 26.5741 7.68123C27.241 8.08206 27.8052 8.63301 28.2217 9.29024C28.6383 9.94747 28.8957 10.6929 28.9734 11.4671C29.0512 12.2413 28.9472 13.023 28.6697 13.7499C28.3922 14.4769 27.9489 15.129 27.375 15.6545C28.7348 16.2432 29.9168 17.1775 30.8038 18.3645C30.8826 18.4698 30.9398 18.5896 30.9722 18.7171C31.0046 18.8446 31.0115 18.9772 30.9926 19.1074C30.9737 19.2375 30.9293 19.3627 30.8619 19.4757C30.7945 19.5886 30.7055 19.6872 30.6 19.7657ZM23.865 27.4657C23.9374 27.5795 23.986 27.7068 24.0078 27.8399C24.0297 27.973 24.0245 28.1091 23.9924 28.2401C23.9603 28.3711 23.902 28.4943 23.8211 28.6022C23.7402 28.7101 23.6383 28.8005 23.5215 28.868C23.4048 28.9355 23.2756 28.9786 23.1417 28.9949C23.0078 29.0112 22.872 29.0002 22.7425 28.9626C22.6129 28.925 22.4924 28.8616 22.388 28.7762C22.2836 28.6908 22.1975 28.5852 22.135 28.4657C21.5051 27.3991 20.6079 26.5151 19.532 25.901C18.4562 25.2869 17.2388 24.9639 16 24.9639C14.7612 24.9639 13.5438 25.2869 12.468 25.901C11.3921 26.5151 10.495 27.3991 9.86501 28.4657C9.8025 28.5852 9.71646 28.6908 9.61206 28.7762C9.50767 28.8616 9.38708 28.925 9.25755 28.9626C9.12802 29.0002 8.99223 29.0112 8.85835 28.9949C8.72446 28.9786 8.59525 28.9355 8.47848 28.868C8.36172 28.8005 8.25981 28.7101 8.1789 28.6022C8.09798 28.4943 8.03973 28.3711 8.00764 28.2401C7.97556 28.1091 7.9703 27.973 7.99219 27.8399C8.01408 27.7068 8.06266 27.5795 8.13501 27.4657C9.10451 25.7999 10.5828 24.4891 12.3525 23.7257C11.3567 22.9633 10.6248 21.9079 10.2598 20.708C9.89473 19.5081 9.91489 18.224 10.3174 17.0361C10.7199 15.8482 11.4846 14.8164 12.5038 14.0856C13.5231 13.3547 14.7458 12.9617 16 12.9617C17.2542 12.9617 18.4769 13.3547 19.4962 14.0856C20.5155 14.8164 21.2801 15.8482 21.6826 17.0361C22.0851 18.224 22.1053 19.5081 21.7403 20.708C21.3752 21.9079 20.6434 22.9633 19.6475 23.7257C21.4173 24.4891 22.8955 25.7999 23.865 27.4657ZM16 22.9657C16.7911 22.9657 17.5645 22.7311 18.2223 22.2916C18.8801 21.8521 19.3928 21.2274 19.6955 20.4965C19.9983 19.7655 20.0775 18.9613 19.9232 18.1854C19.7688 17.4094 19.3878 16.6967 18.8284 16.1373C18.269 15.5779 17.5563 15.1969 16.7804 15.0426C16.0045 14.8882 15.2002 14.9674 14.4693 15.2702C13.7384 15.573 13.1137 16.0856 12.6741 16.7434C12.2346 17.4012 12 18.1746 12 18.9657C12 20.0266 12.4214 21.044 13.1716 21.7941C13.9217 22.5443 14.9391 22.9657 16 22.9657ZM9.00001 15.9657C9.00001 15.7005 8.89466 15.4461 8.70712 15.2586C8.51958 15.0711 8.26523 14.9657 8.00001 14.9657C7.43892 14.9657 6.88909 14.8083 6.41297 14.5114C5.93686 14.2145 5.55353 13.7901 5.30655 13.2863C5.05957 12.7825 4.95882 12.2195 5.01576 11.6613C5.0727 11.1031 5.28503 10.5721 5.62865 10.1285C5.97226 9.68493 6.43339 9.34662 6.95964 9.15199C7.48589 8.95736 8.05618 8.91421 8.60572 9.02745C9.15527 9.14068 9.66204 9.40576 10.0685 9.79258C10.4749 10.1794 10.7647 10.6724 10.905 11.2157C10.9713 11.4726 11.137 11.6927 11.3655 11.8275C11.5941 11.9623 11.8668 12.0008 12.1238 11.9345C12.3807 11.8682 12.6008 11.7025 12.7355 11.474C12.8703 11.2454 12.9088 10.9726 12.8425 10.7157C12.6478 9.96236 12.28 9.26484 11.7683 8.67866C11.2566 8.09247 10.6151 7.63381 9.89495 7.33916C9.17479 7.0445 8.3958 6.922 7.61996 6.98138C6.84412 7.04077 6.09285 7.28041 5.42592 7.68123C4.75899 8.08206 4.19482 8.63301 3.77829 9.29024C3.36176 9.94747 3.10437 10.6929 3.0266 11.4671C2.94883 12.2413 3.05283 13.023 3.33032 13.7499C3.60781 14.4769 4.05113 15.129 4.62501 15.6545C3.26662 16.2438 2.08591 17.178 1.20001 18.3645C1.04072 18.5766 0.972231 18.8434 1.00962 19.1061C1.04701 19.3687 1.18721 19.6058 1.39939 19.7651C1.61156 19.9244 1.87832 19.9929 2.14099 19.9555C2.40366 19.9181 2.64072 19.7779 2.80001 19.5657C3.40275 18.7555 4.18728 18.0982 5.09046 17.6466C5.99364 17.195 6.99023 16.9618 8.00001 16.9657C8.26523 16.9657 8.51958 16.8604 8.70712 16.6728C8.89466 16.4853 9.00001 16.2309 9.00001 15.9657Z" fill="white"/>
</svg>
