<svg width="33" height="33" viewBox="0 0 33 33" fill="none" xmlns="http://www.w3.org/2000/svg">
<path d="M16.3333 10.4658C15.1466 10.4658 13.9865 10.8177 12.9998 11.477C12.0131 12.1363 11.2441 13.0734 10.79 14.1697C10.3358 15.2661 10.217 16.4725 10.4485 17.6364C10.6801 18.8002 11.2515 19.8693 12.0906 20.7085C12.9297 21.5476 13.9988 22.119 15.1627 22.3505C16.3266 22.582 17.533 22.4632 18.6294 22.0091C19.7257 21.555 20.6628 20.7859 21.3221 19.7992C21.9814 18.8125 22.3333 17.6525 22.3333 16.4658C22.3316 14.875 21.6989 13.3499 20.5741 12.225C19.4492 11.1001 17.924 10.4675 16.3333 10.4658ZM16.3333 20.4658C15.5421 20.4658 14.7688 20.2312 14.111 19.7917C13.4532 19.3522 12.9405 18.7275 12.6377 17.9966C12.335 17.2656 12.2558 16.4614 12.4101 15.6855C12.5645 14.9095 12.9454 14.1968 13.5048 13.6374C14.0642 13.078 14.777 12.697 15.5529 12.5427C16.3288 12.3883 17.1331 12.4676 17.864 12.7703C18.5949 13.0731 19.2196 13.5857 19.6591 14.2435C20.0987 14.9013 20.3333 15.6747 20.3333 16.4658C20.3333 17.5267 19.9118 18.5441 19.1617 19.2942C18.4115 20.0444 17.3941 20.4658 16.3333 20.4658ZM22.3333 3.46582H10.3333C8.47735 3.46781 6.69802 4.20594 5.3857 5.51827C4.07337 6.83059 3.33524 8.60991 3.33325 10.4658V22.4658C3.33524 24.3217 4.07337 26.1011 5.3857 27.4134C6.69802 28.7257 8.47735 29.4638 10.3333 29.4658H22.3333C24.1892 29.4638 25.9685 28.7257 27.2808 27.4134C28.5931 26.1011 29.3313 24.3217 29.3333 22.4658V10.4658C29.3313 8.60991 28.5931 6.83059 27.2808 5.51827C25.9685 4.20594 24.1892 3.46781 22.3333 3.46582ZM27.3333 22.4658C27.3333 23.7919 26.8065 25.0637 25.8688 26.0014C24.9311 26.939 23.6593 27.4658 22.3333 27.4658H10.3333C9.00717 27.4658 7.7354 26.939 6.79772 26.0014C5.86004 25.0637 5.33325 23.7919 5.33325 22.4658V10.4658C5.33325 9.13974 5.86004 7.86797 6.79772 6.93029C7.7354 5.9926 9.00717 5.46582 10.3333 5.46582H22.3333C23.6593 5.46582 24.9311 5.9926 25.8688 6.93029C26.8065 7.86797 27.3333 9.13974 27.3333 10.4658V22.4658ZM24.3333 9.96582C24.3333 10.2625 24.2453 10.5525 24.0805 10.7992C23.9156 11.0458 23.6814 11.2381 23.4073 11.3516C23.1332 11.4652 22.8316 11.4949 22.5406 11.437C22.2496 11.3791 21.9824 11.2363 21.7726 11.0265C21.5628 10.8167 21.42 10.5494 21.3621 10.2585C21.3042 9.96748 21.3339 9.66588 21.4474 9.3918C21.561 9.11771 21.7532 8.88344 21.9999 8.71862C22.2466 8.55379 22.5366 8.46582 22.8333 8.46582C23.2311 8.46582 23.6126 8.62386 23.8939 8.90516C24.1752 9.18646 24.3333 9.568 24.3333 9.96582Z" fill="white"/>
</svg>
