<svg width="57" height="56" viewBox="0 0 57 56" fill="none" xmlns="http://www.w3.org/2000/svg">
<g opacity="0.3">
<path d="M44.1555 12.4443H13.0444V43.5554H44.1555V12.4443Z" fill="white"/>
<path d="M33.9432 36.7499C34.5699 37.7731 35.3852 38.5252 36.8271 38.5252C38.0385 38.5252 38.8123 37.9198 38.8123 37.0832C38.8123 36.0808 38.0173 35.7257 36.6839 35.1425L35.9531 34.8289C33.8434 33.9302 32.4419 32.8042 32.4419 30.424C32.4419 28.2314 34.1126 26.5623 36.7234 26.5623C38.5822 26.5623 39.9185 27.2092 40.8815 28.903L38.6049 30.3647C38.1037 29.466 37.5629 29.1119 36.7234 29.1119C35.8671 29.1119 35.3244 29.6551 35.3244 30.3647C35.3244 31.2418 35.8676 31.5968 37.1219 32.14L37.8528 32.4531C40.3368 33.5183 41.7392 34.6042 41.7392 37.0457C41.7392 39.6778 39.6716 41.1198 36.8948 41.1198C34.1797 41.1198 32.4257 39.826 31.5674 38.1302L33.9432 36.7499ZM23.6158 37.0032C24.075 37.8181 24.4928 38.5069 25.4973 38.5069C26.4578 38.5069 27.0637 38.1311 27.0637 36.6699V26.7292H29.9871V36.7094C29.9871 39.7366 28.2123 41.1144 25.6217 41.1144C23.281 41.1144 21.9254 39.903 21.236 38.444L23.6158 37.0032Z" fill="#232428"/>
</g>
</svg>
