<svg width="33" height="33" viewBox="0 0 33 33" fill="none" xmlns="http://www.w3.org/2000/svg">
<path d="M27.3334 3.46582H5.33337C4.80294 3.46582 4.29423 3.67653 3.91916 4.05161C3.54409 4.42668 3.33337 4.93539 3.33337 5.46582V27.4658C3.33337 27.9963 3.54409 28.505 3.91916 28.88C4.29423 29.2551 4.80294 29.4658 5.33337 29.4658H27.3334C27.8638 29.4658 28.3725 29.2551 28.7476 28.88C29.1227 28.505 29.3334 27.9963 29.3334 27.4658V5.46582C29.3334 4.93539 29.1227 4.42668 28.7476 4.05161C28.3725 3.67653 27.8638 3.46582 27.3334 3.46582ZM27.3334 27.4658H5.33337V5.46582H27.3334V27.4658ZM12.3334 14.4658V22.4658C12.3334 22.731 12.228 22.9854 12.0405 23.1729C11.8529 23.3605 11.5986 23.4658 11.3334 23.4658C11.0682 23.4658 10.8138 23.3605 10.6263 23.1729C10.4387 22.9854 10.3334 22.731 10.3334 22.4658V14.4658C10.3334 14.2006 10.4387 13.9462 10.6263 13.7587C10.8138 13.5712 11.0682 13.4658 11.3334 13.4658C11.5986 13.4658 11.8529 13.5712 12.0405 13.7587C12.228 13.9462 12.3334 14.2006 12.3334 14.4658ZM23.3334 17.9658V22.4658C23.3334 22.731 23.228 22.9854 23.0405 23.1729C22.8529 23.3605 22.5986 23.4658 22.3334 23.4658C22.0682 23.4658 21.8138 23.3605 21.6263 23.1729C21.4387 22.9854 21.3334 22.731 21.3334 22.4658V17.9658C21.3334 17.3028 21.07 16.6669 20.6011 16.1981C20.1323 15.7292 19.4964 15.4658 18.8334 15.4658C18.1703 15.4658 17.5344 15.7292 17.0656 16.1981C16.5968 16.6669 16.3334 17.3028 16.3334 17.9658V22.4658C16.3334 22.731 16.228 22.9854 16.0405 23.1729C15.8529 23.3605 15.5986 23.4658 15.3334 23.4658C15.0682 23.4658 14.8138 23.3605 14.6263 23.1729C14.4387 22.9854 14.3334 22.731 14.3334 22.4658V14.4658C14.3346 14.2209 14.4257 13.9849 14.5894 13.8027C14.7531 13.6204 14.9779 13.5046 15.2213 13.4772C15.4647 13.4497 15.7098 13.5126 15.9099 13.6538C16.11 13.795 16.2514 14.0048 16.3071 14.2433C16.9836 13.7844 17.7723 13.5184 18.5886 13.474C19.4048 13.4295 20.2177 13.6082 20.9401 13.9909C21.6624 14.3736 22.2669 14.9458 22.6885 15.6461C23.1102 16.3464 23.3331 17.1484 23.3334 17.9658ZM12.8334 10.9658C12.8334 11.2625 12.7454 11.5525 12.5806 11.7992C12.4158 12.0458 12.1815 12.2381 11.9074 12.3516C11.6333 12.4652 11.3317 12.4949 11.0407 12.437C10.7498 12.3791 10.4825 12.2363 10.2727 12.0265C10.0629 11.8167 9.92007 11.5494 9.8622 11.2585C9.80432 10.9675 9.83402 10.6659 9.94755 10.3918C10.0611 10.1177 10.2533 9.88344 10.5 9.71862C10.7467 9.55379 11.0367 9.46582 11.3334 9.46582C11.7312 9.46582 12.1127 9.62386 12.394 9.90516C12.6753 10.1865 12.8334 10.568 12.8334 10.9658Z" fill="white"/>
</svg>
