<svg width="32" height="33" viewBox="0 0 32 33" fill="none" xmlns="http://www.w3.org/2000/svg">
<path d="M31 15.9658C30.9983 14.375 30.3657 12.8498 29.2408 11.725C28.116 10.6001 26.5908 9.96742 25 9.96576H20.025C19.6612 9.94451 13.3225 9.49826 7.28625 4.43576C6.99476 4.19096 6.63946 4.03441 6.26208 3.98453C5.88471 3.93465 5.50094 3.9935 5.15585 4.15416C4.81076 4.31483 4.51869 4.57064 4.31395 4.89154C4.1092 5.21244 4.00029 5.58511 4 5.96576V25.9658C4.00005 26.3465 4.10879 26.7194 4.31345 27.0404C4.5181 27.3615 4.81015 27.6175 5.15529 27.7784C5.50042 27.9392 5.88429 27.9981 6.26178 27.9483C6.63926 27.8985 6.99468 27.7419 7.28625 27.497C12.0075 23.537 16.9113 22.402 19 22.0845V26.0495C18.9996 26.3791 19.0806 26.7036 19.2359 26.9943C19.3912 27.285 19.6159 27.5329 19.89 27.7158L21.265 28.632C21.5308 28.8094 21.8352 28.9205 22.1527 28.9561C22.4703 28.9917 22.7917 28.9506 23.0901 28.8364C23.3885 28.7222 23.6553 28.5382 23.8679 28.2997C24.0806 28.0612 24.2331 27.7753 24.3125 27.4658L25.7838 21.9208C27.2272 21.7287 28.5517 21.0191 29.5112 19.9237C30.4706 18.8284 30.9997 17.4219 31 15.9658ZM6 25.957V5.96576C11.3513 10.4545 16.8287 11.5908 19 11.8708V20.0558C16.8313 20.3408 11.355 21.4745 6 25.957ZM22.375 26.957V26.9708L21 26.0545V21.9658H23.7L22.375 26.957ZM25 19.9658H21V11.9658H25C26.0609 11.9658 27.0783 12.3872 27.8284 13.1373C28.5786 13.8875 29 14.9049 29 15.9658C29 17.0266 28.5786 18.044 27.8284 18.7942C27.0783 19.5443 26.0609 19.9658 25 19.9658Z" fill="white"/>
</svg>
