<svg width="57" height="56" viewBox="0 0 57 56" fill="none" xmlns="http://www.w3.org/2000/svg">
<g opacity="0.3">
<path d="M28.4 30.7427C29.9148 30.7427 31.1428 29.5147 31.1428 27.9999C31.1428 26.4851 29.9148 25.2571 28.4 25.2571C26.8852 25.2571 25.6572 26.4851 25.6572 27.9999C25.6572 29.5147 26.8852 30.7427 28.4 30.7427Z" fill="white"/>
<path fill-rule="evenodd" clip-rule="evenodd" d="M15.509 26.555C14.8879 27.1157 14.6824 27.6057 14.6824 28.0001C14.6824 28.3944 14.8879 28.8844 15.509 29.4451C16.1301 30.0057 17.0848 30.5564 18.3498 31.0394C20.8727 32.0027 24.4258 32.6195 28.4 32.6195C32.3742 32.6195 35.9272 32.0027 38.4502 31.0394C39.7151 30.5564 40.6699 30.0057 41.2909 29.4451C41.9121 28.8844 42.1176 28.3944 42.1176 28.0001C42.1176 27.6057 41.9121 27.1157 41.2909 26.555C40.6699 25.9944 39.7151 25.4437 38.4502 24.9607C35.9272 23.9974 32.3742 23.3806 28.4 23.3806C24.4258 23.3806 20.8727 23.9974 18.3498 24.9607C17.0848 25.4437 16.1301 25.9944 15.509 26.555ZM17.6364 23.0923C20.4401 22.0218 24.2459 21.3806 28.4 21.3806C32.5541 21.3806 36.3599 22.0218 39.1636 23.0923C40.562 23.6262 41.7626 24.2864 42.6311 25.0704C43.4995 25.8543 44.1176 26.8426 44.1176 28.0001C44.1176 29.1575 43.4995 30.1458 42.6311 30.9297C41.7626 31.7137 40.562 32.3739 39.1636 32.9078C36.3599 33.9784 32.5541 34.6195 28.4 34.6195C24.2459 34.6195 20.4401 33.9784 17.6364 32.9078C16.2379 32.3739 15.0374 31.7137 14.1689 30.9297C13.3005 30.1458 12.6824 29.1575 12.6824 28.0001C12.6824 26.8426 13.3005 25.8543 14.1689 25.0704C15.0374 24.2864 16.2379 23.6262 17.6364 23.0923Z" fill="white"/>
<path fill-rule="evenodd" clip-rule="evenodd" d="M23.206 16.1135C22.4098 15.856 21.8827 15.923 21.5412 16.1201C21.1997 16.3173 20.8781 16.7403 20.7031 17.5586C20.5281 18.3767 20.5285 19.4789 20.7427 20.8159C21.17 23.4825 22.4123 26.8679 24.3994 30.3097C26.3865 33.7515 28.6972 36.5201 30.793 38.2234C31.8437 39.0773 32.798 39.6289 33.594 39.8864C34.3902 40.1439 34.9173 40.0769 35.2588 39.8798C35.6003 39.6826 35.9219 39.2596 36.0969 38.4413C36.2719 37.6232 36.2714 36.521 36.0572 35.184C35.63 32.5174 34.3877 29.132 32.4006 25.6902C30.4134 22.2484 28.1028 19.4798 26.007 17.7765C24.9563 16.9226 24.002 16.371 23.206 16.1135ZM27.2684 16.2245C29.5974 18.1173 32.0556 21.0927 34.1326 24.6902C36.2097 28.2878 37.5573 31.9043 38.0321 34.8676C38.2689 36.3457 38.2974 37.7155 38.0527 38.8596C37.808 40.0036 37.2612 41.0331 36.2588 41.6118C35.2564 42.1905 34.0915 42.1494 32.9784 41.7893C31.8652 41.4291 30.6932 40.7195 29.5316 39.7754C27.2026 37.8826 24.7444 34.9072 22.6674 31.3097C20.5903 27.7121 19.2427 24.0956 18.7679 21.1323C18.5311 19.6542 18.5026 18.2844 18.7473 17.1403C18.992 15.9963 19.5388 14.9668 20.5412 14.3881C21.5435 13.8094 22.7085 13.8505 23.8216 14.2106C24.9348 14.5708 26.1068 15.2804 27.2684 16.2245Z" fill="white"/>
<path fill-rule="evenodd" clip-rule="evenodd" d="M36.0969 17.5585C35.9219 16.7403 35.6003 16.3173 35.2588 16.1201C34.9173 15.9229 34.3901 15.8559 33.594 16.1135C32.798 16.371 31.8437 16.9225 30.7929 17.7765C28.6972 19.4798 26.3865 22.2484 24.3994 25.6902C22.4123 29.1319 21.17 32.5173 20.7427 35.184C20.5285 36.5209 20.5281 37.6231 20.703 38.4412C20.8781 39.2595 21.1997 39.6825 21.5412 39.8797C21.8827 40.0769 22.4098 40.1439 23.206 39.8863C24.002 39.6288 24.9563 39.0773 26.007 38.2233C28.1028 36.52 30.4134 33.7514 32.4005 30.3096C34.3877 26.8678 35.63 23.4824 36.0572 20.8158C36.2714 19.4789 36.2719 18.3766 36.0969 17.5585ZM38.032 21.1322C37.5573 24.0956 36.2096 27.7121 34.1326 31.3096C32.0555 34.9071 29.5974 37.8825 27.2684 39.7753C26.1068 40.7194 24.9348 41.4291 23.8216 41.7892C22.7085 42.1493 21.5435 42.1904 20.5412 41.6117C19.5388 41.033 18.992 40.0036 18.7473 38.8596C18.5026 37.7154 18.5311 36.3456 18.7679 34.8676C19.2427 31.9042 20.5903 28.2877 22.6674 24.6902C24.7444 21.0926 27.2026 18.1173 29.5315 16.2244C30.6932 15.2803 31.8652 14.5707 32.9784 14.2106C34.0915 13.8505 35.2564 13.8093 36.2588 14.388C37.2611 14.9667 37.808 15.9962 38.0527 17.1402C38.2974 18.2843 38.2688 19.6541 38.032 21.1322Z" fill="white"/>
</g>
</svg>
