<svg width="32" height="33" viewBox="0 0 32 33" fill="none" xmlns="http://www.w3.org/2000/svg">
<path d="M31.4701 12.0832L16.4701 4.08315C16.3254 4.00611 16.164 3.96582 16.0001 3.96582C15.8361 3.96582 15.6747 4.00611 15.5301 4.08315L0.530054 12.0832C0.370059 12.1684 0.236255 12.2956 0.142954 12.451C0.0496529 12.6065 0.000366211 12.7844 0.000366211 12.9657C0.000366211 13.147 0.0496529 13.3248 0.142954 13.4803C0.236255 13.6357 0.370059 13.7629 0.530054 13.8482L4.00005 15.6994V21.7519C3.99901 22.2431 4.17979 22.7173 4.50755 23.0832C6.14505 24.9069 9.8138 27.9657 16.0001 27.9657C18.0512 27.9826 20.0871 27.6111 22.0001 26.8707V30.9657C22.0001 31.2309 22.1054 31.4852 22.2929 31.6728C22.4805 31.8603 22.7348 31.9657 23.0001 31.9657C23.2653 31.9657 23.5196 31.8603 23.7072 31.6728C23.8947 31.4852 24.0001 31.2309 24.0001 30.9657V25.9044C25.3041 25.1516 26.4824 24.1997 27.4926 23.0832C27.8203 22.7173 28.0011 22.2431 28.0001 21.7519V15.6994L31.4701 13.8482C31.63 13.7629 31.7639 13.6357 31.8572 13.4803C31.9505 13.3248 31.9997 13.147 31.9997 12.9657C31.9997 12.7844 31.9505 12.6065 31.8572 12.451C31.7639 12.2956 31.63 12.1684 31.4701 12.0832ZM16.0001 25.9657C10.5913 25.9657 7.41005 23.3232 6.00005 21.7519V16.7657L15.5301 21.8482C15.6747 21.9252 15.8361 21.9655 16.0001 21.9655C16.164 21.9655 16.3254 21.9252 16.4701 21.8482L22.0001 18.8994V24.6919C20.4251 25.4269 18.4401 25.9657 16.0001 25.9657ZM26.0001 21.7469C25.4006 22.4121 24.7299 23.0094 24.0001 23.5282V17.8319L26.0001 16.7657V21.7469ZM23.5001 15.8332L23.4726 15.8169L16.4726 12.0832C16.239 11.9639 15.9679 11.9411 15.7178 12.0197C15.4676 12.0984 15.2583 12.2722 15.1351 12.5036C15.0118 12.7351 14.9844 13.0057 15.0587 13.2572C15.1331 13.5087 15.3032 13.7209 15.5326 13.8482L21.3751 16.9657L16.0001 19.8319L3.12505 12.9657L16.0001 6.0994L28.8751 12.9657L23.5001 15.8332Z" fill="white"/>
</svg>
