<svg width="56" height="56" viewBox="0 0 56 56" fill="none" xmlns="http://www.w3.org/2000/svg">
<path d="M12.4445 12.4443H43.5556V43.5554H12.4445V12.4443Z" fill="#C6C5C5"/>
<path d="M27.3827 23.9652H28.875V26.5416H24.8403V38.0041L24.7334 38.0333C24.5875 38.0722 22.6674 38.0722 22.2542 38.0284L21.9236 37.9992V26.5416H17.8889V23.9652L19.1674 23.9506C19.8674 23.9409 21.666 23.9409 23.1632 23.9506C24.6605 23.9604 26.5563 23.9652 27.3827 23.9652ZM38.7723 36.7888C38.1792 37.4159 37.5424 37.7659 36.4827 38.0527C36.0209 38.1791 35.9431 38.184 34.9028 38.1791C33.8626 38.1742 33.7799 38.1742 33.2744 38.043C31.9667 37.7076 30.9119 37.0513 30.1924 36.1229C29.9882 35.8604 29.6528 35.3159 29.6528 35.2479C29.6528 35.2284 29.7014 35.1847 29.7646 35.1555C29.8278 35.1263 29.9591 35.0437 30.066 34.9805C30.173 34.9173 30.3674 34.8006 30.4987 34.7326C30.6299 34.6645 31.0091 34.4409 31.3396 34.2416C31.6702 34.0423 31.9716 33.8819 32.0056 33.8819C32.0396 33.8819 32.1028 33.9499 32.1514 34.0326C32.4431 34.5236 33.1237 35.1506 33.6049 35.3645C33.9014 35.4909 34.5577 35.6319 34.8737 35.6319C35.1653 35.6319 35.7001 35.5055 35.9869 35.3742C36.2931 35.2333 36.4487 35.0923 36.6334 34.8104C36.7598 34.6111 36.7744 34.5576 36.7695 34.1784C36.7695 33.8284 36.7501 33.7312 36.6528 33.5708C36.3806 33.1236 36.0112 32.8902 34.5139 32.2291C32.9681 31.5437 32.273 31.1354 31.7091 30.5861C31.291 30.1777 31.2084 30.0659 30.9459 29.5555C30.6056 28.8992 30.5619 28.6854 30.557 27.7083C30.5521 27.0229 30.5667 26.7992 30.6396 26.5659C30.7417 26.2159 31.0723 25.5402 31.223 25.3701C31.5341 25.0055 31.6459 24.8937 31.8646 24.7138C32.5257 24.1694 33.5563 23.8097 34.5431 23.7756C34.6549 23.7756 35.0244 23.7951 35.3695 23.8194C36.3612 23.902 37.0369 24.1451 37.6883 24.6652C38.1792 25.0541 38.923 25.968 38.8501 26.0895C38.8015 26.1624 36.8619 27.4555 36.7355 27.4944C36.6577 27.5187 36.6042 27.4895 36.4973 27.3631C35.8362 26.5708 35.5688 26.4006 34.9271 26.3617C34.4702 26.3326 34.2271 26.3861 33.9209 26.5902C33.6001 26.8041 33.4445 27.1298 33.4445 27.5819C33.4494 28.243 33.7021 28.5541 34.6355 29.0159C35.2383 29.3124 35.7535 29.5555 35.7924 29.5555C35.8508 29.5555 37.1001 30.1777 37.4258 30.3722C38.9424 31.2617 39.5598 32.1756 39.7202 33.7506C39.8369 34.9367 39.5015 36.0208 38.7723 36.7888Z" fill="#F9F9F9"/>
</svg>
