<svg width="32" height="33" viewBox="0 0 32 33" fill="none" xmlns="http://www.w3.org/2000/svg">
<path d="M23.4475 18.5708L19.4475 16.5708C19.2901 16.4924 19.1147 16.4568 18.9391 16.4678C18.7636 16.4788 18.594 16.5359 18.4475 16.6333L16.6113 17.8583C15.7683 17.3949 15.0747 16.7013 14.6113 15.8583L15.8363 14.0221C15.9337 13.8756 15.9908 13.706 16.0018 13.5305C16.0128 13.3549 15.9772 13.1795 15.8988 13.0221L13.8988 9.02207C13.8159 8.85466 13.6877 8.71382 13.5289 8.6155C13.3701 8.51719 13.1868 8.46534 13 8.46582C11.6739 8.46582 10.4022 8.99261 9.4645 9.93029C8.52681 10.868 8.00003 12.1397 8.00003 13.4658C8.00334 16.3822 9.16333 19.1782 11.2255 21.2403C13.2877 23.3025 16.0837 24.4625 19 24.4658C19.6566 24.4658 20.3068 24.3365 20.9134 24.0852C21.5201 23.8339 22.0713 23.4656 22.5356 23.0014C22.9999 22.5371 23.3682 21.9859 23.6194 21.3792C23.8707 20.7726 24 20.1224 24 19.4658C24.0002 19.28 23.9485 19.0979 23.851 18.9398C23.7534 18.7817 23.6137 18.654 23.4475 18.5708ZM19 22.4658C16.6139 22.4632 14.3262 21.5141 12.639 19.8269C10.9517 18.1396 10.0027 15.852 10 13.4658C9.99984 12.7722 10.24 12.1 10.6796 11.5635C11.1192 11.027 11.7312 10.6594 12.4113 10.5233L13.8463 13.3983L12.625 15.2158C12.5338 15.3527 12.4777 15.51 12.4618 15.6738C12.4459 15.8375 12.4706 16.0027 12.5338 16.1546C13.2493 17.8551 14.602 19.2078 16.3025 19.9233C16.4549 19.9893 16.6213 20.0163 16.7867 20.0019C16.9521 19.9875 17.1114 19.9322 17.25 19.8408L19.0763 18.6233L21.9513 20.0583C21.8141 20.7392 21.4449 21.3514 20.9067 21.7905C20.3685 22.2295 19.6946 22.4682 19 22.4658ZM16 3.46582C13.7556 3.46533 11.5493 4.04593 9.59585 5.15111C7.64239 6.25628 6.00834 7.84838 4.85274 9.77245C3.69715 11.6965 3.05938 13.887 3.00151 16.1306C2.94365 18.3743 3.46765 20.5947 4.52253 22.5758L3.10378 26.8321C2.98626 27.1845 2.96921 27.5626 3.05453 27.9242C3.13985 28.2857 3.32417 28.6163 3.58684 28.879C3.84951 29.1417 4.18015 29.326 4.54169 29.4113C4.90323 29.4966 5.28139 29.4796 5.63378 29.3621L9.89003 27.9433C11.6335 28.8706 13.5653 29.3886 15.5388 29.4578C17.5123 29.5271 19.4757 29.1458 21.2799 28.343C23.084 27.5402 24.6816 26.3369 25.9513 24.8244C27.221 23.312 28.1294 21.5302 28.6077 19.6142C29.0859 17.6983 29.1214 15.6986 28.7114 13.7669C28.3015 11.8352 27.4568 10.0222 26.2416 8.46572C25.0263 6.90919 23.4725 5.64997 21.6979 4.78364C19.9234 3.91731 17.9748 3.46663 16 3.46582ZM16 27.4658C14.0663 27.4671 12.1664 26.9579 10.4925 25.9896C10.37 25.9185 10.2337 25.8743 10.0928 25.8598C9.95185 25.8454 9.80945 25.8611 9.67503 25.9058L5.00003 27.4658L6.55878 22.7908C6.60371 22.6565 6.61959 22.5141 6.60537 22.3732C6.59115 22.2323 6.54715 22.096 6.47628 21.9733C5.26374 19.877 4.77692 17.439 5.09132 15.0378C5.40572 12.6365 6.50377 10.4061 8.21514 8.69256C9.92651 6.97903 12.1555 5.87816 14.5564 5.56072C16.9573 5.24329 19.3958 5.72704 21.4937 6.93693C23.5916 8.14681 25.2316 10.0152 26.1592 12.2523C27.0869 14.4893 27.2504 16.97 26.6243 19.3094C25.9983 21.6489 24.6177 23.7163 22.6967 25.1911C20.7757 26.6658 18.4218 27.4654 16 27.4658Z" fill="white"/>
</svg>
